<svg width="81" height="49" viewBox="0 0 81 49" fill="none" xmlns="http://www.w3.org/2000/svg">
<path d="M17.9568 14.4313C17.9521 14.2064 17.9922 13.9827 18.0747 13.7736C18.1573 13.5645 18.2806 13.3741 18.4374 13.2136C18.6105 13.0432 18.817 12.911 19.0437 12.8252C19.2704 12.7394 19.5124 12.7021 19.7542 12.7155C19.9966 12.7024 20.239 12.74 20.4663 12.8257C20.6935 12.9114 20.9007 13.0435 21.0748 13.2136C21.229 13.3753 21.3496 13.5662 21.4295 13.7753C21.5095 13.9844 21.5473 14.2074 21.5407 14.4313V30.2985C21.5142 30.7589 21.6565 31.2132 21.9405 31.5752C22.0782 31.7301 22.2483 31.8525 22.4386 31.9335C22.6288 32.0145 22.8345 32.0522 23.041 32.0439H30.0105C30.4183 32.032 30.814 32.1833 31.111 32.4645C31.2588 32.6135 31.3739 32.7919 31.4491 32.9882C31.5243 33.1846 31.5578 33.3946 31.5475 33.6048C31.5632 33.8196 31.5289 34.0351 31.4474 34.2343C31.3659 34.4335 31.2394 34.6109 31.078 34.7524C30.7921 35.0113 30.4244 35.1602 30.0399 35.173H22.3367C21.7518 35.2 21.1676 35.1077 20.6191 34.9016C20.0707 34.6955 19.5693 34.3799 19.1453 33.9738C18.3383 33.1742 17.9348 32.0254 17.9348 30.5273L17.9568 14.4313Z" fill="white"/>
<path d="M43.385 12.4018C45.0084 12.3839 46.618 12.703 48.1133 13.3391C49.4952 13.9216 50.7484 14.7744 51.8 15.8481C52.8516 16.9218 53.6807 18.195 54.2392 19.5937C55.3982 22.4906 55.3982 25.7263 54.2392 28.6232C53.6774 30.0181 52.8469 31.2876 51.7956 32.3584C50.7443 33.4293 49.4928 34.2805 48.1133 34.8631C45.0784 36.1127 41.6769 36.1127 38.642 34.8631C37.2436 34.2747 35.9736 33.4159 34.9041 32.3354C33.8569 31.2716 33.0291 30.01 32.4684 28.6232C31.3139 25.7254 31.3139 22.4915 32.4684 19.5937C33.0262 18.201 33.8542 16.934 34.9041 15.8668C35.9736 14.7862 37.2436 13.9274 38.642 13.3391C40.1426 12.7037 41.7569 12.3847 43.385 12.4018V12.4018ZM43.385 32.697C44.5184 32.7102 45.6423 32.4878 46.6863 32.0439C47.6584 31.6266 48.5331 31.0094 49.2541 30.2321C49.9779 29.4459 50.5412 28.5244 50.9121 27.5199C51.6996 25.3273 51.6996 22.9265 50.9121 20.7339C50.5422 19.7234 49.9789 18.7957 49.2541 18.0033C48.5328 17.2271 47.6582 16.6112 46.6863 16.1952C44.5705 15.3245 42.1994 15.3245 40.0836 16.1952C39.1062 16.6129 38.2247 17.2283 37.4938 18.0033C36.7576 18.7931 36.183 19.7209 35.8028 20.7339C34.9959 22.9231 34.9959 25.3307 35.8028 27.5199C36.184 28.5269 36.7586 29.4484 37.4938 30.2321C38.2246 31.0081 39.106 31.6248 40.0836 32.0439C41.129 32.4815 42.2528 32.6976 43.385 32.6786V32.697Z" fill="white"/>
<path d="M79.3883 23.0107C79.8179 22.9767 80.2442 23.1087 80.5805 23.3797C80.7204 23.5135 80.8301 23.676 80.9022 23.8562C80.9744 24.0363 81.0073 24.2299 80.9987 24.424V24.8926C81.007 26.3324 80.7276 27.7591 80.177 29.0882C79.6452 30.3872 78.8593 31.5655 77.866 32.5531C76.8389 33.5763 75.6227 34.3873 74.2859 34.9406C71.2767 36.1279 67.9288 36.1055 64.9356 34.8778C63.5388 34.2885 62.2702 33.4298 61.2014 32.3502C60.1542 31.2863 59.3264 30.0248 58.7657 28.638C57.6064 25.7245 57.6064 22.474 58.7657 19.5605C59.3285 18.1713 60.1616 16.9092 61.216 15.8483C62.296 14.7713 63.576 13.9187 64.9833 13.3391C66.5231 12.7073 68.1735 12.3936 69.8363 12.4166C71.3485 12.3848 72.8531 12.6401 74.2712 13.1693C75.3983 13.594 76.4546 14.1888 77.4038 14.9332C77.6102 15.0808 77.785 15.2685 77.918 15.4853C78.0509 15.702 78.1393 15.9434 78.1778 16.1952C78.2294 16.5991 78.1243 17.0074 77.8844 17.3354C77.6478 17.6444 77.3098 17.8589 76.9306 17.9406C76.7221 17.9846 76.5063 17.9809 76.2993 17.9298C76.0924 17.8787 75.8994 17.7815 75.7348 17.6454C74.9265 17.0739 74.0668 16.5798 73.1671 16.1693C72.1141 15.718 70.9768 15.5002 69.8327 15.531C68.6682 15.5161 67.5128 15.7383 66.4359 16.1841C65.4425 16.594 64.5442 17.2062 63.7974 17.9822C63.0506 18.7582 62.4715 19.6813 62.0964 20.6933C61.6856 21.7834 61.4803 22.9409 61.4912 24.1066C61.4793 25.2688 61.6846 26.4229 62.0964 27.5088C62.4777 28.5149 63.051 29.4362 63.7838 30.221C64.5159 30.9955 65.397 31.6119 66.3735 32.0328C67.4178 32.4759 68.5416 32.6983 69.6749 32.6859C70.6748 32.6967 71.6685 32.528 72.6095 32.1878C74.311 31.5728 75.7252 30.3447 76.5785 28.7413C77.0166 27.9277 77.3202 27.0478 77.4772 26.1361H70.6947C70.4663 26.1519 70.2373 26.1152 70.0251 26.0289C69.8129 25.9426 69.6229 25.8089 69.4695 25.638C69.1996 25.3332 69.0507 24.9391 69.0513 24.531C69.063 24.1462 69.2159 23.7795 69.4805 23.5014C69.6341 23.3342 69.8227 23.2034 70.0327 23.1185C70.2427 23.0336 70.4688 22.9968 70.6947 23.0107H79.3883Z" fill="white"/>
<path d="M1.0171 25.5679C0.885793 22.4048 1.37824 19.247 2.46604 16.2763C3.49644 13.4327 5.06756 10.8183 7.09165 8.57893C9.16277 6.3096 11.6664 4.48248 14.4537 3.20623C17.4777 1.8246 20.7478 1.07154 24.0681 0.992211C27.1274 0.89627 29.782 1.22099 32.0318 1.96638C33.965 2.54768 35.785 3.45749 37.413 4.65642C37.8164 4.92667 38.1603 5.27737 38.4234 5.68677C38.6865 6.09618 38.8633 6.55557 38.9427 7.03649C39.0766 7.84623 38.9038 8.67705 38.4585 9.36491C37.9922 9.98849 37.3305 10.4357 36.5804 10.6343C35.7685 10.8803 34.9333 10.6995 34.075 10.0918C31.2136 8.08937 27.7636 7.11804 24.2845 7.33539C21.9658 7.38745 19.6828 7.92139 17.5791 8.90365C15.6204 9.81312 13.8701 11.1206 12.4383 12.7438C11.0065 14.367 9.92419 16.2708 9.25956 18.3354C8.5242 20.5802 8.20103 22.9409 8.30583 25.3022C8.36631 27.6649 8.85355 29.9968 9.74377 32.1841C10.5647 34.2122 11.785 36.0523 13.3313 37.5937C14.862 39.1105 16.693 40.2861 18.7052 41.0439C20.8782 41.8538 23.1913 42.214 25.506 42.1029C27.3724 42.0403 29.2176 41.6855 30.9753 41.0513C32.8145 40.3767 34.5337 39.4086 36.0668 38.1841C36.394 37.8927 36.7839 37.6814 37.2058 37.5668C37.6277 37.4522 38.0703 37.4374 38.4988 37.5236C38.9077 37.6063 39.2957 37.7716 39.6394 38.0094C39.983 38.2473 40.2751 38.5527 40.498 38.9073C40.9698 39.5832 41.1679 40.4145 41.0519 41.2321C40.9067 42.1011 40.4531 42.8877 39.7754 43.4461C38.9273 44.158 38.012 44.7846 37.0426 45.3169C35.9531 45.9195 34.8172 46.4328 33.6458 46.852C32.3865 47.3144 31.0956 47.6844 29.7832 47.959C28.4541 48.2354 27.1044 48.3995 25.7481 48.4498C22.4308 48.6061 19.1162 48.0891 16.0017 46.9295C13.1397 45.8551 10.5205 44.2153 8.29849 42.1066C6.104 40.0146 4.33705 37.5113 3.09698 34.7376C1.80972 31.8488 1.10288 28.7325 1.0171 25.5679V25.5679Z" fill="white"/>
<path d="M49.1697 37.7782C49.8421 37.7649 50.51 37.8904 51.1322 38.1472C51.7049 38.387 52.2244 38.7388 52.6608 39.1822C53.0972 39.6256 53.4417 40.1518 53.6743 40.7302C54.1536 41.9321 54.1536 43.2737 53.6743 44.4756C53.4423 45.0507 53.1009 45.5747 52.6692 46.018C52.2295 46.4646 51.7074 46.8205 51.1322 47.066C49.8848 47.5992 48.4791 47.6177 47.2183 47.1177C46.6382 46.8733 46.1111 46.5173 45.6666 46.0697C45.2314 45.6277 44.8874 45.1035 44.6542 44.5273C44.1748 43.3254 44.1748 41.9838 44.6542 40.7819C44.8872 40.2034 45.2312 39.6768 45.6666 39.2321C46.1111 38.7845 46.6382 38.4285 47.2183 38.1841C47.8347 37.9172 48.4986 37.7791 49.1697 37.7782V37.7782ZM49.1697 46.1952C49.6397 46.1999 50.1055 46.107 50.538 45.9221C50.9423 45.754 51.3072 45.5026 51.6091 45.1841C51.9069 44.8633 52.1399 44.4873 52.2951 44.0771C52.6226 43.1675 52.6226 42.1712 52.2951 41.2616C52.1488 40.8352 51.9194 40.4425 51.6201 40.1066C51.3172 39.7892 50.9526 39.538 50.549 39.3686C49.6705 39.0094 48.6873 39.0094 47.8088 39.3686C47.4046 39.5388 47.0389 39.7899 46.7341 40.1066C46.4276 40.4333 46.1894 40.8185 46.0334 41.2395C45.6959 42.1472 45.6959 43.1472 46.0334 44.055C46.1925 44.4666 46.4306 44.8428 46.7341 45.162C47.038 45.4798 47.4039 45.731 47.8088 45.9C48.2375 46.0912 48.7008 46.1917 49.1697 46.1952V46.1952Z" fill="white"/>
<path d="M61.2931 41.5826C61.3301 40.92 61.1311 40.2659 60.7319 39.7376C60.5205 39.5234 60.269 39.3534 59.992 39.2374C59.715 39.1213 59.4179 39.0616 59.1179 39.0616C58.8178 39.0616 58.5207 39.1213 58.2437 39.2374C57.9667 39.3534 57.7152 39.5234 57.5038 39.7376C57.1046 40.2659 56.9056 40.92 56.9426 41.5826V46.6859C56.9459 46.7766 56.9299 46.867 56.8958 46.951C56.8616 47.035 56.8101 47.1107 56.7445 47.173C56.586 47.2934 56.3929 47.3585 56.1943 47.3585C55.9957 47.3585 55.8026 47.2934 55.6441 47.173C55.5785 47.1107 55.527 47.035 55.4928 46.951C55.4586 46.867 55.4427 46.7766 55.446 46.6859V41.4166C55.4402 40.9122 55.5298 40.4113 55.7101 39.9406C55.8735 39.508 56.1232 39.1137 56.4437 38.7819C56.7749 38.4575 57.1697 38.2061 57.6029 38.0439C58.5722 37.6904 59.6342 37.6904 60.6035 38.0439C61.0367 38.2061 61.4315 38.4575 61.7626 38.7819C62.0832 39.1137 62.3329 39.508 62.4963 39.9406C62.6765 40.4113 62.7662 40.9122 62.7604 41.4166V46.6859C62.7637 46.7766 62.7477 46.867 62.7136 46.951C62.6794 47.035 62.6278 47.1107 62.5623 47.173C62.4038 47.2934 62.2106 47.3585 62.0121 47.3585C61.8135 47.3585 61.6203 47.2934 61.4618 47.173C61.3963 47.1107 61.3447 47.035 61.3106 46.951C61.2764 46.867 61.2605 46.7766 61.2638 46.6859L61.2931 41.5826Z" fill="white"/>
</svg>
